<svg class="dn" height="0" version="1.1" width="0" xmlns="http://www.w3.org/2000/svg">
    <defs>
        <g id="hpa-profile">
            <svg width="24" height="24" viewBox="0 0 24 24" fill="none" xmlns="http://www.w3.org/2000/svg">
                <path d="M20 21V19C20 17.9391 19.5786 16.9217 18.8284 16.1716C18.0783 15.4214 17.0609 15 16 15H8C6.93913 15 5.92172 15.4214 5.17157 16.1716C4.42143 16.9217 4 17.9391 4 19V21" stroke="#353535" stroke-width="2" stroke-linecap="round" stroke-linejoin="round"/>
                <path d="M12 11C14.2091 11 16 9.20914 16 7C16 4.79086 14.2091 3 12 3C9.79086 3 8 4.79086 8 7C8 9.20914 9.79086 11 12 11Z" stroke="#353535" stroke-width="2" stroke-linecap="round" stroke-linejoin="round"/>
            </svg>
        </g>

        <g id="hpa-search">
            <svg width="24" height="24" viewBox="0 0 24 24" fill="none" xmlns="http://www.w3.org/2000/svg">
                <path d="M11 19C15.4183 19 19 15.4183 19 11C19 6.58172 15.4183 3 11 3C6.58172 3 3 6.58172 3 11C3 15.4183 6.58172 19 11 19Z" stroke="#353535" stroke-width="2" stroke-linecap="round" stroke-linejoin="round"/>
                <path d="M20.9999 21L16.6499 16.65" stroke="#353535" stroke-width="2" stroke-linecap="round" stroke-linejoin="round"/>
            </svg>
        </g>

        <g id="hpa-heart">
            <svg width="30" height="25" viewBox="0 0 30 25" fill="none" xmlns="http://www.w3.org/2000/svg">
                <path d="M8.36693 0.143066C4.14579 0.143066 0.713867 3.53217 0.713867 7.61388C0.713867 9.03801 1.37554 10.2715 1.98938 11.1625C2.60322 12.0536 3.233 12.6256 3.233 12.6256L14.2662 23.4271L14.9996 24.1431L15.733 23.4271L26.7662 12.6256C26.7662 12.6256 29.2853 10.4582 29.2853 7.61388C29.2853 3.53217 25.8534 0.143066 21.6322 0.143066C18.1286 0.143066 15.8725 2.20143 14.9996 3.06914C14.1267 2.20143 11.8706 0.143066 8.36693 0.143066ZM8.36693 2.13528C11.4162 2.13528 14.2343 5.03023 14.2343 5.03023L14.9996 5.87069L15.7649 5.03023C15.7649 5.03023 18.583 2.13528 21.6322 2.13528C24.7373 2.13528 27.2445 4.62167 27.2445 7.61388C27.2445 9.15085 25.3312 11.2248 25.3312 11.2248L14.9996 21.3104L4.66795 11.2248C4.66795 11.2248 4.17369 10.7617 3.67943 10.0419C3.18517 9.32205 2.75468 8.38431 2.75468 7.61388C2.75468 4.62167 5.26186 2.13528 8.36693 2.13528Z" fill="#8A2890"/>
            </svg>
        </g>

        <g id="hpa-cart">
            <svg width="24" height="24" viewBox="0 0 24 24" fill="none" xmlns="http://www.w3.org/2000/svg">
                <path d="M6 2L3 6V20C3 20.5304 3.21071 21.0391 3.58579 21.4142C3.96086 21.7893 4.46957 22 5 22H19C19.5304 22 20.0391 21.7893 20.4142 21.4142C20.7893 21.0391 21 20.5304 21 20V6L18 2H6Z" stroke="#353535" stroke-width="2" stroke-linecap="round" stroke-linejoin="round"/>
                <path d="M16 10C16 11.0609 15.5786 12.0783 14.8284 12.8284C14.0783 13.5786 13.0609 14 12 14C10.9391 14 9.92172 13.5786 9.17157 12.8284C8.42143 12.0783 8 11.0609 8 10" stroke="#353535" stroke-width="2" stroke-linecap="round" stroke-linejoin="round"/>
                <path d="M3 6H21" stroke="#353535" stroke-width="2" stroke-linecap="round" stroke-linejoin="round"/>
            </svg>
        </g>

        <g id="hpa-comments">
            <svg width="14" height="14" viewBox="0 0 14 14" fill="none" xmlns="http://www.w3.org/2000/svg">
                <path d="M0 0.5V8.5H2V11.0469L2.8125 10.3906L5.17188 8.5H10V0.5H0ZM1 1.5H9V7.5H4.82812L4.6875 7.60938L3 8.95312V7.5H1V1.5ZM11 2.5V3.5H13V9.5H11V10.9531L9.17188 9.5H5.42188L4.17188 10.5H8.82812L12 13.0469V10.5H14V2.5H11Z" fill="#F36E21"/>
            </svg>
        </g>

        <g id="hpa-listmenu">
            <svg width="22" height="22" viewBox="0 0 22 22" fill="none" xmlns="http://www.w3.org/2000/svg">
                <path d="M7.33325 16.5H19.2499" stroke="white" stroke-width="2" stroke-linecap="round" stroke-linejoin="round"/>
                <path d="M2.75 16.5H2.75917" stroke="white" stroke-width="2" stroke-linecap="round" stroke-linejoin="round"/>
                <path d="M7.33325 11H19.2499" stroke="white" stroke-width="2" stroke-linecap="round" stroke-linejoin="round"/>
                <path d="M2.75 11H2.75917" stroke="white" stroke-width="2" stroke-linecap="round" stroke-linejoin="round"/>
                <path d="M7.33325 5.5H19.2499" stroke="white" stroke-width="2" stroke-linecap="round" stroke-linejoin="round"/>
                <path d="M2.75 5.5H2.75917" stroke="white" stroke-width="2" stroke-linecap="round" stroke-linejoin="round"/>
            </svg>
        </g>

        <g id="hpa-listmenu-mob">
            <svg width="11" height="8" viewBox="0 0 11 8" fill="none" xmlns="http://www.w3.org/2000/svg">
                <path d="M2.72146 0.923077C2.72146 1.43288 2.32463 1.84615 1.83509 1.84615C1.34556 1.84615 0.94873 1.43288 0.94873 0.923077C0.94873 0.413269 1.34556 0 1.83509 0C2.32463 0 2.72146 0.413269 2.72146 0.923077ZM1.83509 3.07692C1.34556 3.07692 0.94873 3.49019 0.94873 4C0.94873 4.50981 1.34556 4.92308 1.83509 4.92308C2.32463 4.92308 2.72146 4.50981 2.72146 4C2.72146 3.49019 2.32463 3.07692 1.83509 3.07692ZM1.83509 6.15385C1.34556 6.15385 0.94873 6.56712 0.94873 7.07692C0.94873 7.58673 1.34556 8 1.83509 8C2.32463 8 2.72146 7.58673 2.72146 7.07692C2.72146 6.56712 2.32463 6.15385 1.83509 6.15385ZM3.60782 1.61538H10.1078C10.271 1.61538 10.4033 1.47763 10.4033 1.30769V0.538462C10.4033 0.368519 10.271 0.230769 10.1078 0.230769H3.60782C3.44464 0.230769 3.31237 0.368519 3.31237 0.538462V1.30769C3.31237 1.47763 3.44464 1.61538 3.60782 1.61538ZM3.60782 4.69231H10.1078C10.271 4.69231 10.4033 4.55456 10.4033 4.38462V3.61538C10.4033 3.44544 10.271 3.30769 10.1078 3.30769H3.60782C3.44464 3.30769 3.31237 3.44544 3.31237 3.61538V4.38462C3.31237 4.55456 3.44464 4.69231 3.60782 4.69231ZM3.60782 7.76923H10.1078C10.271 7.76923 10.4033 7.63148 10.4033 7.46154V6.69231C10.4033 6.52237 10.271 6.38462 10.1078 6.38462H3.60782C3.44464 6.38462 3.31237 6.52237 3.31237 6.69231V7.46154C3.31237 7.63148 3.44464 7.76923 3.60782 7.76923Z" fill="#F36E21"/>
            </svg>
        </g>

        <g id="hpa-wishlist">
            <svg width="10" height="9" viewBox="0 0 10 9" fill="none" xmlns="http://www.w3.org/2000/svg">
                <path d="M2.67857 0C1.20117 0 0 1.27091 0 2.80156C0 3.3356 0.231585 3.79815 0.446429 4.1323C0.661273 4.46644 0.881696 4.68093 0.881696 4.68093L4.7433 8.73152L5 9L5.2567 8.73152L9.1183 4.68093C9.1183 4.68093 10 3.86819 10 2.80156C10 1.27091 8.79883 0 7.32143 0C6.09515 0 5.30552 0.771887 5 1.09728C4.69448 0.771887 3.90486 0 2.67857 0ZM2.67857 0.747082C3.74581 0.747082 4.73214 1.83268 4.73214 1.83268L5 2.14786L5.26786 1.83268C5.26786 1.83268 6.25419 0.747082 7.32143 0.747082C8.4082 0.747082 9.28571 1.67947 9.28571 2.80156C9.28571 3.37792 8.61607 4.15564 8.61607 4.15564L5 7.93774L1.38393 4.15564C1.38393 4.15564 1.21094 3.982 1.03795 3.71206C0.864955 3.44212 0.714286 3.09047 0.714286 2.80156C0.714286 1.67947 1.5918 0.747082 2.67857 0.747082Z" fill="#F36E21"/>
            </svg>
        </g>

        <g id="hpa-hamburguer-menu">
            <svg width="40" height="30" viewBox="0 0 65 50" fill="none" xmlns="http://www.w3.org/2000/svg">
                <path d="M33.7662 2.88867C38.9434 2.88867 43.1593 7.10456 43.1593 12.2818C43.1593 14.531 42.3704 16.5931 41.0458 18.2112L48.5309 25.6963L47.1807 27.0466L39.6956 19.5614C38.0774 20.886 36.0154 21.6749 33.7662 21.6749C28.5889 21.6749 24.373 17.459 24.373 12.2818C24.373 7.10456 28.5889 2.88867 33.7662 2.88867ZM33.7662 4.76729C29.6053 4.76729 26.2517 8.12093 26.2517 12.2818C26.2517 16.4426 29.6053 19.7963 33.7662 19.7963C37.927 19.7963 41.2806 16.4426 41.2806 12.2818C41.2806 8.12093 37.927 4.76729 33.7662 4.76729Z" fill="#8A2890"/>
                <path fill-rule="evenodd" clip-rule="evenodd" d="M0 2.8421V0H33.3947C30.4291 0 27.7131 1.06875 25.6109 2.8421H0ZM21.3363 11.3684H0V14.2105H21.5033C21.3801 13.5186 21.3158 12.8063 21.3158 12.0789C21.3158 11.8404 21.3227 11.6035 21.3363 11.3684ZM27.7055 22.7368H0V25.5789H34.1053V24.1373C33.8702 24.151 33.6333 24.1579 33.3947 24.1579C31.3377 24.1579 29.4008 23.6437 27.7055 22.7368ZM34.1053 0.0205507C33.8702 0.00691338 33.6333 0 33.3947 0H34.1053V0.0205507Z" fill="#8A2890"/>
            </svg>
        </g>

        <g id="nav-home">
            <svg width="10" height="10" viewBox="0 0 10 10" fill="none" xmlns="http://www.w3.org/2000/svg">
                <path d="M8.33337 3.33321L5.83337 1.14155C5.6042 0.936566 5.30751 0.823242 5.00004 0.823242C4.69257 0.823242 4.39588 0.936566 4.16671 1.14155L1.66671 3.33321C1.53436 3.45158 1.42875 3.59678 1.3569 3.75915C1.28506 3.92152 1.24863 4.09733 1.25004 4.27488V7.91655C1.25004 8.24807 1.38174 8.56601 1.61616 8.80043C1.85058 9.03485 2.16852 9.16655 2.50004 9.16655H7.50004C7.83156 9.16655 8.1495 9.03485 8.38392 8.80043C8.61834 8.56601 8.75004 8.24807 8.75004 7.91655V4.27071C8.75086 4.09386 8.71414 3.91886 8.64232 3.75725C8.57049 3.59564 8.46519 3.45111 8.33337 3.33321ZM5.83337 8.33321H4.16671V6.24988C4.16671 6.13937 4.2106 6.03339 4.28874 5.95525C4.36688 5.87711 4.47287 5.83321 4.58337 5.83321H5.41671C5.52721 5.83321 5.63319 5.87711 5.71133 5.95525C5.78947 6.03339 5.83337 6.13937 5.83337 6.24988V8.33321ZM7.91671 7.91655C7.91671 8.02705 7.87281 8.13303 7.79467 8.21117C7.71653 8.28931 7.61055 8.33321 7.50004 8.33321H6.66671V6.24988C6.66671 5.91836 6.53501 5.60042 6.30059 5.366C6.06617 5.13158 5.74823 4.99988 5.41671 4.99988H4.58337C4.25185 4.99988 3.93391 5.13158 3.69949 5.366C3.46507 5.60042 3.33337 5.91836 3.33337 6.24988V8.33321H2.50004C2.38953 8.33321 2.28355 8.28931 2.20541 8.21117C2.12727 8.13303 2.08337 8.02705 2.08337 7.91655V4.27071C2.08345 4.21155 2.09612 4.15309 2.12055 4.0992C2.14497 4.04532 2.18059 3.99726 2.22504 3.95821L4.72504 1.77071C4.80108 1.70391 4.89883 1.66707 5.00004 1.66707C5.10125 1.66707 5.199 1.70391 5.27504 1.77071L7.77504 3.95821C7.81948 3.99726 7.8551 4.04532 7.87953 4.0992C7.90396 4.15309 7.91663 4.21155 7.91671 4.27071V7.91655Z" fill="#777777"/>
            </svg>
        </g>

        <g id="nav-caret--left">
            <svg width="10" height="18" viewBox="0 0 10 18" fill="none" xmlns="http://www.w3.org/2000/svg">
                <path d="M9 17L1 9L9 1" stroke="black" stroke-width="2" stroke-linecap="round" stroke-linejoin="round"/>
            </svg>
        </g>

        <g id="nav-caret--right">
            <svg width="10" height="18" viewBox="0 0 10 18" fill="none" xmlns="http://www.w3.org/2000/svg">
                <path d="M1 17L9 9L1 1" stroke="black" stroke-width="2" stroke-linecap="round" stroke-linejoin="round"/>
            </svg>
        </g>

        <g id="mpa-filter-settings">
            <svg width="13" height="12" viewBox="0 0 13 12" fill="none" xmlns="http://www.w3.org/2000/svg">
                <path d="M12.3256 0.698242L0.658936 0.698242L5.3256 6.21658L5.3256 10.0316L7.65894 11.1982L7.65894 6.21658L12.3256 0.698242Z" stroke="#353535" stroke-linecap="round" stroke-linejoin="round"/>
            </svg>
        </g>
    </defs>
</svg>