<svg width="32" height="26" viewBox="0 0 32 26" fill="none" xmlns="http://www.w3.org/2000/svg">
<path d="M2.25 0.75C1.56152 0.75 1 1.31152 1 2C1 2.68848 1.56152 3.25 2.25 3.25H5.02344L8.30469 16.375C8.58301 17.4883 9.5791 18.25 10.7266 18.25H25.0625C26.1904 18.25 27.1475 17.5029 27.4453 16.4141L30.6875 4.5H9.75L10.375 7H27.4453L25.0625 15.75H10.7266L7.44531 2.625C7.16699 1.51172 6.1709 0.75 5.02344 0.75H2.25ZM23.5 18.25C21.4443 18.25 19.75 19.9443 19.75 22C19.75 24.0557 21.4443 25.75 23.5 25.75C25.5557 25.75 27.25 24.0557 27.25 22C27.25 19.9443 25.5557 18.25 23.5 18.25ZM12.25 18.25C10.1943 18.25 8.5 19.9443 8.5 22C8.5 24.0557 10.1943 25.75 12.25 25.75C14.3057 25.75 16 24.0557 16 22C16 19.9443 14.3057 18.25 12.25 18.25ZM12.25 20.75C12.9531 20.75 13.5 21.2969 13.5 22C13.5 22.7031 12.9531 23.25 12.25 23.25C11.5469 23.25 11 22.7031 11 22C11 21.2969 11.5469 20.75 12.25 20.75ZM23.5 20.75C24.2031 20.75 24.75 21.2969 24.75 22C24.75 22.7031 24.2031 23.25 23.5 23.25C22.7969 23.25 22.25 22.7031 22.25 22C22.25 21.2969 22.7969 20.75 23.5 20.75Z" fill="#8A2890" stroke="white" stroke-width="0.5"/>
</svg>
