<svg width="24" height="26" viewBox="0 0 24 26" fill="none" xmlns="http://www.w3.org/2000/svg">
<path d="M12 0C7.37344 0 3.6 3.71626 3.6 8.27273C3.6 11.1211 5.07656 13.6509 7.3125 15.142C3.03281 16.9517 0 21.1342 0 26H2.4C2.4 20.7649 6.68438 16.5455 12 16.5455C17.3156 16.5455 21.6 20.7649 21.6 26H24C24 21.1342 20.9672 16.9517 16.6875 15.142C18.9234 13.6509 20.4 11.1211 20.4 8.27273C20.4 3.71626 16.6266 0 12 0ZM12 2.36364C15.3281 2.36364 18 4.99503 18 8.27273C18 11.5504 15.3281 14.1818 12 14.1818C8.67188 14.1818 6 11.5504 6 8.27273C6 4.99503 8.67188 2.36364 12 2.36364Z" fill="#8A2890"/>
</svg>
