<svg width="11" height="8" viewBox="0 0 11 8" fill="none" xmlns="http://www.w3.org/2000/svg">
<path d="M2.72146 0.923077C2.72146 1.43288 2.32463 1.84615 1.83509 1.84615C1.34556 1.84615 0.94873 1.43288 0.94873 0.923077C0.94873 0.413269 1.34556 0 1.83509 0C2.32463 0 2.72146 0.413269 2.72146 0.923077ZM1.83509 3.07692C1.34556 3.07692 0.94873 3.49019 0.94873 4C0.94873 4.50981 1.34556 4.92308 1.83509 4.92308C2.32463 4.92308 2.72146 4.50981 2.72146 4C2.72146 3.49019 2.32463 3.07692 1.83509 3.07692ZM1.83509 6.15385C1.34556 6.15385 0.94873 6.56712 0.94873 7.07692C0.94873 7.58673 1.34556 8 1.83509 8C2.32463 8 2.72146 7.58673 2.72146 7.07692C2.72146 6.56712 2.32463 6.15385 1.83509 6.15385ZM3.60782 1.61538H10.1078C10.271 1.61538 10.4033 1.47763 10.4033 1.30769V0.538462C10.4033 0.368519 10.271 0.230769 10.1078 0.230769H3.60782C3.44464 0.230769 3.31237 0.368519 3.31237 0.538462V1.30769C3.31237 1.47763 3.44464 1.61538 3.60782 1.61538ZM3.60782 4.69231H10.1078C10.271 4.69231 10.4033 4.55456 10.4033 4.38462V3.61538C10.4033 3.44544 10.271 3.30769 10.1078 3.30769H3.60782C3.44464 3.30769 3.31237 3.44544 3.31237 3.61538V4.38462C3.31237 4.55456 3.44464 4.69231 3.60782 4.69231ZM3.60782 7.76923H10.1078C10.271 7.76923 10.4033 7.63148 10.4033 7.46154V6.69231C10.4033 6.52237 10.271 6.38462 10.1078 6.38462H3.60782C3.44464 6.38462 3.31237 6.52237 3.31237 6.69231V7.46154C3.31237 7.63148 3.44464 7.76923 3.60782 7.76923Z" fill="#F36E21"/>
</svg>
