<svg width="30" height="25" viewBox="0 0 30 25" fill="none" xmlns="http://www.w3.org/2000/svg">
<path d="M8.36693 0.143066C4.14579 0.143066 0.713867 3.53217 0.713867 7.61388C0.713867 9.03801 1.37554 10.2715 1.98938 11.1625C2.60322 12.0536 3.233 12.6256 3.233 12.6256L14.2662 23.4271L14.9996 24.1431L15.733 23.4271L26.7662 12.6256C26.7662 12.6256 29.2853 10.4582 29.2853 7.61388C29.2853 3.53217 25.8534 0.143066 21.6322 0.143066C18.1286 0.143066 15.8725 2.20143 14.9996 3.06914C14.1267 2.20143 11.8706 0.143066 8.36693 0.143066ZM8.36693 2.13528C11.4162 2.13528 14.2343 5.03023 14.2343 5.03023L14.9996 5.87069L15.7649 5.03023C15.7649 5.03023 18.583 2.13528 21.6322 2.13528C24.7373 2.13528 27.2445 4.62167 27.2445 7.61388C27.2445 9.15085 25.3312 11.2248 25.3312 11.2248L14.9996 21.3104L4.66795 11.2248C4.66795 11.2248 4.17369 10.7617 3.67943 10.0419C3.18517 9.32205 2.75468 8.38431 2.75468 7.61388C2.75468 4.62167 5.26186 2.13528 8.36693 2.13528Z" fill="#8A2890"/>
</svg>
