<svg width="19" height="16" viewBox="0 0 19 16" fill="none" xmlns="http://www.w3.org/2000/svg">
<path d="M16.3179 3.07333C15.918 2.73267 15.4432 2.46243 14.9206 2.27805C14.3979 2.09368 13.8378 1.99878 13.2721 1.99878C12.7064 1.99878 12.1462 2.09368 11.6236 2.27805C11.101 2.46243 10.6261 2.73267 10.2262 3.07333L9.39623 3.78L8.56625 3.07333C7.75844 2.38553 6.66281 1.99914 5.52039 1.99914C4.37797 1.99914 3.28234 2.38553 2.47453 3.07333C1.66672 3.76112 1.21289 4.69397 1.21289 5.66666C1.21289 6.63935 1.66672 7.5722 2.47453 8.26L3.30451 8.96666L9.39623 14.1533L15.488 8.96666L16.3179 8.26C16.718 7.91949 17.0354 7.51521 17.252 7.07023C17.4685 6.62526 17.58 6.14832 17.58 5.66666C17.58 5.185 17.4685 4.70807 17.252 4.26309C17.0354 3.81812 16.718 3.41383 16.3179 3.07333V3.07333Z" stroke="#F36E21" stroke-width="2" stroke-linecap="round" stroke-linejoin="round"/>
</svg>
