<svg width="49" height="28" viewBox="0 0 49 28" fill="none" xmlns="http://www.w3.org/2000/svg">
<path d="M33.7662 2.88867C38.9434 2.88867 43.1593 7.10456 43.1593 12.2818C43.1593 14.531 42.3704 16.5931 41.0458 18.2112L48.5309 25.6963L47.1807 27.0466L39.6956 19.5614C38.0774 20.886 36.0154 21.6749 33.7662 21.6749C28.5889 21.6749 24.373 17.459 24.373 12.2818C24.373 7.10456 28.5889 2.88867 33.7662 2.88867ZM33.7662 4.76729C29.6053 4.76729 26.2517 8.12093 26.2517 12.2818C26.2517 16.4426 29.6053 19.7963 33.7662 19.7963C37.927 19.7963 41.2806 16.4426 41.2806 12.2818C41.2806 8.12093 37.927 4.76729 33.7662 4.76729Z" fill="#8A2890"/>
<path fill-rule="evenodd" clip-rule="evenodd" d="M0 2.8421V0H33.3947C30.4291 0 27.7131 1.06875 25.6109 2.8421H0ZM21.3363 11.3684H0V14.2105H21.5033C21.3801 13.5186 21.3158 12.8063 21.3158 12.0789C21.3158 11.8404 21.3227 11.6035 21.3363 11.3684ZM27.7055 22.7368H0V25.5789H34.1053V24.1373C33.8702 24.151 33.6333 24.1579 33.3947 24.1579C31.3377 24.1579 29.4008 23.6437 27.7055 22.7368ZM34.1053 0.0205507C33.8702 0.00691338 33.6333 0 33.3947 0H34.1053V0.0205507Z" fill="#8A2890"/>
</svg>
