<svg width="10" height="9" viewBox="0 0 10 9" fill="none" xmlns="http://www.w3.org/2000/svg">
<path d="M2.67857 0C1.20117 0 0 1.27091 0 2.80156C0 3.3356 0.231585 3.79815 0.446429 4.1323C0.661273 4.46644 0.881696 4.68093 0.881696 4.68093L4.7433 8.73152L5 9L5.2567 8.73152L9.1183 4.68093C9.1183 4.68093 10 3.86819 10 2.80156C10 1.27091 8.79883 0 7.32143 0C6.09515 0 5.30552 0.771887 5 1.09728C4.69448 0.771887 3.90486 0 2.67857 0ZM2.67857 0.747082C3.74581 0.747082 4.73214 1.83268 4.73214 1.83268L5 2.14786L5.26786 1.83268C5.26786 1.83268 6.25419 0.747082 7.32143 0.747082C8.4082 0.747082 9.28571 1.67947 9.28571 2.80156C9.28571 3.37792 8.61607 4.15564 8.61607 4.15564L5 7.93774L1.38393 4.15564C1.38393 4.15564 1.21094 3.982 1.03795 3.71206C0.864955 3.44212 0.714286 3.09047 0.714286 2.80156C0.714286 1.67947 1.5918 0.747082 2.67857 0.747082Z" fill="#F36E21"/>
</svg>
