<svg width="20" height="20" viewBox="0 0 20 20" fill="none" xmlns="http://www.w3.org/2000/svg">
<g clip-path="url(#clip0)">
<path d="M0.833496 16.6667V11.6667H5.8335" stroke="#F36E21" stroke-width="2" stroke-linecap="round" stroke-linejoin="round"/>
<path d="M19.1665 3.33334V8.33334H14.1665" stroke="#F36E21" stroke-width="2" stroke-linecap="round" stroke-linejoin="round"/>
<path d="M2.92516 7.50001C3.3478 6.30567 4.06611 5.23785 5.01305 4.39619C5.96 3.55454 7.10472 2.96648 8.3404 2.68689C9.57608 2.4073 10.8625 2.4453 12.0795 2.79732C13.2965 3.14935 14.4045 3.80394 15.3002 4.70001L19.1668 8.33334M0.833496 11.6667L4.70016 15.3C5.59579 16.1961 6.70381 16.8507 7.92084 17.2027C9.13787 17.5547 10.4242 17.5927 11.6599 17.3131C12.8956 17.0335 14.0403 16.4455 14.9873 15.6038C15.9342 14.7622 16.6525 13.6944 17.0752 12.5" stroke="#F36E21" stroke-width="2" stroke-linecap="round" stroke-linejoin="round"/>
</g>
<defs>
<clipPath id="clip0">
<rect width="20" height="20" fill="white"/>
</clipPath>
</defs>
</svg>
