<svg width="10" height="10" viewBox="0 0 10 10" fill="none" xmlns="http://www.w3.org/2000/svg">
<path d="M8.33337 3.33321L5.83337 1.14155C5.6042 0.936566 5.30751 0.823242 5.00004 0.823242C4.69257 0.823242 4.39588 0.936566 4.16671 1.14155L1.66671 3.33321C1.53436 3.45158 1.42875 3.59678 1.3569 3.75915C1.28506 3.92152 1.24863 4.09733 1.25004 4.27488V7.91655C1.25004 8.24807 1.38174 8.56601 1.61616 8.80043C1.85058 9.03485 2.16852 9.16655 2.50004 9.16655H7.50004C7.83156 9.16655 8.1495 9.03485 8.38392 8.80043C8.61834 8.56601 8.75004 8.24807 8.75004 7.91655V4.27071C8.75086 4.09386 8.71414 3.91886 8.64232 3.75725C8.57049 3.59564 8.46519 3.45111 8.33337 3.33321ZM5.83337 8.33321H4.16671V6.24988C4.16671 6.13937 4.2106 6.03339 4.28874 5.95525C4.36688 5.87711 4.47287 5.83321 4.58337 5.83321H5.41671C5.52721 5.83321 5.63319 5.87711 5.71133 5.95525C5.78947 6.03339 5.83337 6.13937 5.83337 6.24988V8.33321ZM7.91671 7.91655C7.91671 8.02705 7.87281 8.13303 7.79467 8.21117C7.71653 8.28931 7.61055 8.33321 7.50004 8.33321H6.66671V6.24988C6.66671 5.91836 6.53501 5.60042 6.30059 5.366C6.06617 5.13158 5.74823 4.99988 5.41671 4.99988H4.58337C4.25185 4.99988 3.93391 5.13158 3.69949 5.366C3.46507 5.60042 3.33337 5.91836 3.33337 6.24988V8.33321H2.50004C2.38953 8.33321 2.28355 8.28931 2.20541 8.21117C2.12727 8.13303 2.08337 8.02705 2.08337 7.91655V4.27071C2.08345 4.21155 2.09612 4.15309 2.12055 4.0992C2.14497 4.04532 2.18059 3.99726 2.22504 3.95821L4.72504 1.77071C4.80108 1.70391 4.89883 1.66707 5.00004 1.66707C5.10125 1.66707 5.199 1.70391 5.27504 1.77071L7.77504 3.95821C7.81948 3.99726 7.8551 4.04532 7.87953 4.0992C7.90396 4.15309 7.91663 4.21155 7.91671 4.27071V7.91655Z" fill="#777777"/>
</svg>
